<svg xmlns="http://www.w3.org/2000/svg" width="123.302" height="32.76" viewBox="0 0 123.302 32.76">
  <g id="logo" transform="translate(-260.38 -31.52)">
    <path id="Path_2" data-name="Path 2" d="M3.059-21.719q0-1.3-1.767-1.4Q.068-23.19.068-23.917q0-.761,1.4-.761a10.022,10.022,0,0,1,1.468.12,9.493,9.493,0,0,0,1.366.12q.375,0,2.083-.239a20.4,20.4,0,0,1,2.629-.239A8.668,8.668,0,0,1,14.725-23.1,5.822,5.822,0,0,1,16.919-18.4a4.4,4.4,0,0,1-1.085,3.055A9.812,9.812,0,0,1,12.1-13.108q-.5.188-.5.394a1,1,0,0,0,.206.444q.942,1.333,3.545,5.768t2.774,4.631a2.378,2.378,0,0,0,.908.444,2.15,2.15,0,0,1,.933.493.857.857,0,0,1,.2.55q0,.389-.513.669a1.873,1.873,0,0,1-.821.279,4.25,4.25,0,0,1-1.917-.606,5.437,5.437,0,0,1-1.489-1.033q-.667-.853-4.364-6.964-1.728-2.851-1.985-3.209a4.611,4.611,0,0,0-1.814-1.707.651.651,0,0,1-.291-.182.788.788,0,0,1-.068-.407q0-.744.886-.744.085,0,.477.06a5.083,5.083,0,0,0,.767.06,4.342,4.342,0,0,0,3.136-1.216,4.487,4.487,0,0,0,1.261-3.39,4.537,4.537,0,0,0-1.418-3.065,5.106,5.106,0,0,0-3.931-1.524,3.3,3.3,0,0,0-1.376.214,1,1,0,0,0-.547.531,2.563,2.563,0,0,0-.111.83V-2.617a1.078,1.078,0,0,0,.49.916,2.149,2.149,0,0,0,1.28.351,2.071,2.071,0,0,1,1.151.22.755.755,0,0,1,.292.643A.814.814,0,0,1,8.9.191,1.846,1.846,0,0,1,7.8.461,4.564,4.564,0,0,1,6.167.077,4.438,4.438,0,0,0,4.64-.308,4.481,4.481,0,0,0,3.207.06a4.522,4.522,0,0,1-1.5.367Q.137.427.137-.554A.624.624,0,0,1,.392-1.1a2.743,2.743,0,0,1,1.274-.178,1.708,1.708,0,0,0,1-.274.8.8,0,0,0,.391-.668ZM31.24-6.631a.764.764,0,0,0,.53-.136.688.688,0,0,0,.137-.492A3.6,3.6,0,0,0,30.89-9.7a3.908,3.908,0,0,0-3.068-1.136,4.5,4.5,0,0,0-2.931,1.348,4.851,4.851,0,0,0-1.512,3.821,4.3,4.3,0,0,0,1.6,3.25A5.2,5.2,0,0,0,28.548-.974a6.88,6.88,0,0,0,3.241-.94,2.608,2.608,0,0,1,.87-.359.67.67,0,0,1,.486.173.578.578,0,0,1,.179.433q0,.624-1.888,1.512a9.035,9.035,0,0,1-3.888.889,6.757,6.757,0,0,1-4.973-2.017,6.558,6.558,0,0,1-2.017-4.8,5.462,5.462,0,0,1,2.213-4.358,7.638,7.638,0,0,1,4.965-1.812,7.143,7.143,0,0,1,5.349,1.829A6.056,6.056,0,0,1,34.863-6.05q0,.547-.273.675a2.672,2.672,0,0,1-1.007.128H25.753q-.955,0-.955-.709,0-.675.991-.675Zm17.192,3.78q0,1.229,1.641,1.706a1.829,1.829,0,0,1,.607.277.719.719,0,0,1,.2.588.465.465,0,0,1-.265.389,1.066,1.066,0,0,1-.573.164,3.513,3.513,0,0,1-.88-.154,3.542,3.542,0,0,0-.9-.154,4.136,4.136,0,0,0-.991.154,4.067,4.067,0,0,1-.8.154A.783.783,0,0,1,46,.1a.459.459,0,0,1-.231-.342q0-.273-.171-.273a.623.623,0,0,0-.308.12A7.775,7.775,0,0,1,41.118.8,6.211,6.211,0,0,1,38.751.256a4.688,4.688,0,0,1-2.094-1.683,4.824,4.824,0,0,1-.786-2.811,3.979,3.979,0,0,1,1.7-3.145A6.756,6.756,0,0,1,41.944-8.75a4.758,4.758,0,0,1,1.987.5q1.083.5,1.083,1.034a.476.476,0,0,1-.222.41.938.938,0,0,1-.547.154,2.694,2.694,0,0,1-.872-.308,3.082,3.082,0,0,0-1.333-.308,3.353,3.353,0,0,0-2.324.827,2.817,2.817,0,0,0-.923,2.207,2.991,2.991,0,0,0,1.06,2.463A3.764,3.764,0,0,0,42.3-.906a3.655,3.655,0,0,0,2.3-.82,2.635,2.635,0,0,0,1.051-2.187V-8.545a2.216,2.216,0,0,0-.69-1.692,2.59,2.59,0,0,0-1.85-.649,5.1,5.1,0,0,0-2.881.94,1.6,1.6,0,0,1-.648.325,1.145,1.145,0,0,1-.7-.214.66.66,0,0,1-.29-.555q0-.837,1.53-1.418a9.334,9.334,0,0,1,3.341-.581,5.491,5.491,0,0,1,3.606,1.126,3.376,3.376,0,0,1,1.367,2.679Zm17.449-.838a3.4,3.4,0,0,0,.342,1.528,2.028,2.028,0,0,0,1.23,1,3.832,3.832,0,0,1,1.025.446.434.434,0,0,1,.137.312q0,.746-.789.746a2.744,2.744,0,0,1-.72-.137,4.343,4.343,0,0,0-1.2-.137,4.861,4.861,0,0,0-1.089.137,4.711,4.711,0,0,1-.746.137A.72.72,0,0,1,63.524.1a.856.856,0,0,1-.249-.5Q63.25-.65,63.164-.65l-.273.12A9.36,9.36,0,0,1,58.523.94,6.423,6.423,0,0,1,53.975-.991a5.963,5.963,0,0,1-2.022-4.426A6.048,6.048,0,0,1,54-10.117a6.89,6.89,0,0,1,4.76-1.846,5.523,5.523,0,0,1,2.355.569q1.211.569,1.211,1.265a.494.494,0,0,1-.162.374A.521.521,0,0,1,61.8-9.6a4.218,4.218,0,0,1-1.185-.419,4.2,4.2,0,0,0-1.714-.419A3.657,3.657,0,0,0,55.984-9,5.19,5.19,0,0,0,54.79-5.58a6.09,6.09,0,0,0,1.083,3.355A3.364,3.364,0,0,0,58.832-.564a6.022,6.022,0,0,0,2.311-.555,2.8,2.8,0,0,0,1.663-1.5A8.653,8.653,0,0,0,63.164-5.5V-20.186a3.033,3.033,0,0,0-.479-1.964,2.9,2.9,0,0,0-1.384-.82,5.453,5.453,0,0,1-1.111-.412.505.505,0,0,1-.205-.451.468.468,0,0,1,.257-.39,1.331,1.331,0,0,1,.72-.165,7.659,7.659,0,0,1,.805.085,7.6,7.6,0,0,0,.994.085,11.719,11.719,0,0,0,1.363-.068q.574-.068.694-.068a.875.875,0,0,1,.823.35,1.908,1.908,0,0,1,.206.965q0,1.127.017,1.81t.017,1.212Zm6.733-5.9a1.222,1.222,0,0,0,.366.8,11.1,11.1,0,0,0,2.343,1.45A7.432,7.432,0,0,1,77.992-5.3a3.662,3.662,0,0,1,.69,2.113A3.214,3.214,0,0,1,77.238-.428,6.3,6.3,0,0,1,73.5.6,6.186,6.186,0,0,1,70.983.043q-1.256-.555-1.256-1.119,0-.464-.068-1.143T69.59-3.311q0-.842.779-.842a.582.582,0,0,1,.415.188,4.8,4.8,0,0,1,.6,1.256,2.981,2.981,0,0,0,.993,1.461,2.306,2.306,0,0,0,1.315.393,2.134,2.134,0,0,0,1.527-.6,2.025,2.025,0,0,0,.628-1.536,1.82,1.82,0,0,0-.426-1.152A7.562,7.562,0,0,0,73.093-5.58a6.135,6.135,0,0,1-2.471-1.766,3.319,3.319,0,0,1-.571-1.869,2.689,2.689,0,0,1,1.239-2.236,4.754,4.754,0,0,1,2.88-.9,7.7,7.7,0,0,1,2.666.475q1.3.475,1.3,1.011a5.85,5.85,0,0,0,.068.8,5.71,5.71,0,0,1,.068.769,1.116,1.116,0,0,1-.182.632.537.537,0,0,1-.459.273.7.7,0,0,1-.562-.2,1.938,1.938,0,0,1-.3-.7,1.677,1.677,0,0,0-.441-.792,3.066,3.066,0,0,0-.814-.534,2.62,2.62,0,0,0-1.136-.241,2.04,2.04,0,0,0-1.2.4A1.1,1.1,0,0,0,72.615-9.59Z" transform="translate(305 57)" fill="#00508e"/>
    <path id="Path_1" data-name="Path 1" d="M2.38,0H6.44V-18.76l8.89,8.54,8.89-8.54V0h4.06V-25.48H25.55L15.33-15.33,5.18-25.48H2.38ZM34.685,7.28h3.85l7.91-29.12h-3.99L38.6-5.53l-3.92-16.31h-3.92L36.785,0Z" transform="translate(258 57)"/>
  </g>
</svg>
